<mxfile host="app.diagrams.net" modified="2021-08-26T06:15:48.895Z" agent="5.0 (Macintosh; Intel Mac OS X 10_15_7) AppleWebKit/537.36 (KHTML, like Gecko) Chrome/86.0.4240.193 Safari/537.36" etag="8AEsGllV6eG6GTVi9O3M" version="14.9.9" type="github">
  <diagram id="kYGawjzVfZlOIBJ64PKP" name="Page-1">
    <mxGraphModel dx="946" dy="536" grid="1" gridSize="10" guides="1" tooltips="1" connect="1" arrows="1" fold="1" page="1" pageScale="1" pageWidth="827" pageHeight="1169" math="0" shadow="0">
      <root>
        <mxCell id="0" />
        <mxCell id="1" parent="0" />
        <mxCell id="1dIHy2hXcwwlP3k45t-N-1" value="" style="shape=table;html=1;whiteSpace=wrap;startSize=0;container=1;collapsible=0;childLayout=tableLayout;fillColor=#dae8fc;strokeColor=#6c8ebf;" vertex="1" parent="1">
          <mxGeometry x="200" y="210" width="60" height="200" as="geometry" />
        </mxCell>
        <mxCell id="1dIHy2hXcwwlP3k45t-N-18" style="shape=partialRectangle;html=1;whiteSpace=wrap;collapsible=0;dropTarget=0;pointerEvents=0;fillColor=none;top=0;left=0;bottom=0;right=0;points=[[0,0.5],[1,0.5]];portConstraint=eastwest;" vertex="1" parent="1dIHy2hXcwwlP3k45t-N-1">
          <mxGeometry width="60" height="40" as="geometry" />
        </mxCell>
        <mxCell id="1dIHy2hXcwwlP3k45t-N-19" value="1" style="shape=partialRectangle;html=1;whiteSpace=wrap;connectable=0;fillColor=none;top=0;left=0;bottom=0;right=0;overflow=hidden;pointerEvents=1;" vertex="1" parent="1dIHy2hXcwwlP3k45t-N-18">
          <mxGeometry width="60" height="40" as="geometry" />
        </mxCell>
        <mxCell id="1dIHy2hXcwwlP3k45t-N-14" style="shape=partialRectangle;html=1;whiteSpace=wrap;collapsible=0;dropTarget=0;pointerEvents=0;fillColor=none;top=0;left=0;bottom=0;right=0;points=[[0,0.5],[1,0.5]];portConstraint=eastwest;" vertex="1" parent="1dIHy2hXcwwlP3k45t-N-1">
          <mxGeometry y="40" width="60" height="40" as="geometry" />
        </mxCell>
        <mxCell id="1dIHy2hXcwwlP3k45t-N-15" value="2" style="shape=partialRectangle;html=1;whiteSpace=wrap;connectable=0;fillColor=none;top=0;left=0;bottom=0;right=0;overflow=hidden;pointerEvents=1;" vertex="1" parent="1dIHy2hXcwwlP3k45t-N-14">
          <mxGeometry width="60" height="40" as="geometry" />
        </mxCell>
        <mxCell id="1dIHy2hXcwwlP3k45t-N-2" value="" style="shape=partialRectangle;html=1;whiteSpace=wrap;collapsible=0;dropTarget=0;pointerEvents=0;fillColor=none;top=0;left=0;bottom=0;right=0;points=[[0,0.5],[1,0.5]];portConstraint=eastwest;" vertex="1" parent="1dIHy2hXcwwlP3k45t-N-1">
          <mxGeometry y="80" width="60" height="40" as="geometry" />
        </mxCell>
        <mxCell id="1dIHy2hXcwwlP3k45t-N-3" value="5" style="shape=partialRectangle;html=1;whiteSpace=wrap;connectable=0;fillColor=none;top=0;left=0;bottom=0;right=0;overflow=hidden;pointerEvents=1;" vertex="1" parent="1dIHy2hXcwwlP3k45t-N-2">
          <mxGeometry width="60" height="40" as="geometry" />
        </mxCell>
        <mxCell id="1dIHy2hXcwwlP3k45t-N-6" value="" style="shape=partialRectangle;html=1;whiteSpace=wrap;collapsible=0;dropTarget=0;pointerEvents=0;fillColor=none;top=0;left=0;bottom=0;right=0;points=[[0,0.5],[1,0.5]];portConstraint=eastwest;" vertex="1" parent="1dIHy2hXcwwlP3k45t-N-1">
          <mxGeometry y="120" width="60" height="40" as="geometry" />
        </mxCell>
        <mxCell id="1dIHy2hXcwwlP3k45t-N-7" value="7" style="shape=partialRectangle;html=1;whiteSpace=wrap;connectable=0;fillColor=none;top=0;left=0;bottom=0;right=0;overflow=hidden;pointerEvents=1;" vertex="1" parent="1dIHy2hXcwwlP3k45t-N-6">
          <mxGeometry width="60" height="40" as="geometry" />
        </mxCell>
        <mxCell id="1dIHy2hXcwwlP3k45t-N-10" value="" style="shape=partialRectangle;html=1;whiteSpace=wrap;collapsible=0;dropTarget=0;pointerEvents=0;fillColor=none;top=0;left=0;bottom=0;right=0;points=[[0,0.5],[1,0.5]];portConstraint=eastwest;" vertex="1" parent="1dIHy2hXcwwlP3k45t-N-1">
          <mxGeometry y="160" width="60" height="40" as="geometry" />
        </mxCell>
        <mxCell id="1dIHy2hXcwwlP3k45t-N-11" value="9" style="shape=partialRectangle;html=1;whiteSpace=wrap;connectable=0;fillColor=none;top=0;left=0;bottom=0;right=0;overflow=hidden;pointerEvents=1;" vertex="1" parent="1dIHy2hXcwwlP3k45t-N-10">
          <mxGeometry width="60" height="40" as="geometry" />
        </mxCell>
        <mxCell id="1dIHy2hXcwwlP3k45t-N-22" value="" style="shape=table;html=1;whiteSpace=wrap;startSize=0;container=1;collapsible=0;childLayout=tableLayout;fillColor=#fff2cc;strokeColor=#d6b656;" vertex="1" parent="1">
          <mxGeometry x="384" y="210" width="60" height="200" as="geometry" />
        </mxCell>
        <mxCell id="1dIHy2hXcwwlP3k45t-N-23" style="shape=partialRectangle;html=1;whiteSpace=wrap;collapsible=0;dropTarget=0;pointerEvents=0;fillColor=none;top=0;left=0;bottom=0;right=0;points=[[0,0.5],[1,0.5]];portConstraint=eastwest;" vertex="1" parent="1dIHy2hXcwwlP3k45t-N-22">
          <mxGeometry width="60" height="40" as="geometry" />
        </mxCell>
        <mxCell id="1dIHy2hXcwwlP3k45t-N-24" value="12" style="shape=partialRectangle;html=1;whiteSpace=wrap;connectable=0;fillColor=none;top=0;left=0;bottom=0;right=0;overflow=hidden;pointerEvents=1;" vertex="1" parent="1dIHy2hXcwwlP3k45t-N-23">
          <mxGeometry width="60" height="40" as="geometry" />
        </mxCell>
        <mxCell id="1dIHy2hXcwwlP3k45t-N-25" style="shape=partialRectangle;html=1;whiteSpace=wrap;collapsible=0;dropTarget=0;pointerEvents=0;fillColor=none;top=0;left=0;bottom=0;right=0;points=[[0,0.5],[1,0.5]];portConstraint=eastwest;" vertex="1" parent="1dIHy2hXcwwlP3k45t-N-22">
          <mxGeometry y="40" width="60" height="40" as="geometry" />
        </mxCell>
        <mxCell id="1dIHy2hXcwwlP3k45t-N-26" value="9" style="shape=partialRectangle;html=1;whiteSpace=wrap;connectable=0;fillColor=none;top=0;left=0;bottom=0;right=0;overflow=hidden;pointerEvents=1;" vertex="1" parent="1dIHy2hXcwwlP3k45t-N-25">
          <mxGeometry width="60" height="40" as="geometry" />
        </mxCell>
        <mxCell id="1dIHy2hXcwwlP3k45t-N-27" value="" style="shape=partialRectangle;html=1;whiteSpace=wrap;collapsible=0;dropTarget=0;pointerEvents=0;fillColor=none;top=0;left=0;bottom=0;right=0;points=[[0,0.5],[1,0.5]];portConstraint=eastwest;" vertex="1" parent="1dIHy2hXcwwlP3k45t-N-22">
          <mxGeometry y="80" width="60" height="40" as="geometry" />
        </mxCell>
        <mxCell id="1dIHy2hXcwwlP3k45t-N-28" value="6" style="shape=partialRectangle;html=1;whiteSpace=wrap;connectable=0;fillColor=none;top=0;left=0;bottom=0;right=0;overflow=hidden;pointerEvents=1;" vertex="1" parent="1dIHy2hXcwwlP3k45t-N-27">
          <mxGeometry width="60" height="40" as="geometry" />
        </mxCell>
        <mxCell id="1dIHy2hXcwwlP3k45t-N-29" value="" style="shape=partialRectangle;html=1;whiteSpace=wrap;collapsible=0;dropTarget=0;pointerEvents=0;fillColor=none;top=0;left=0;bottom=0;right=0;points=[[0,0.5],[1,0.5]];portConstraint=eastwest;" vertex="1" parent="1dIHy2hXcwwlP3k45t-N-22">
          <mxGeometry y="120" width="60" height="40" as="geometry" />
        </mxCell>
        <mxCell id="1dIHy2hXcwwlP3k45t-N-30" value="5" style="shape=partialRectangle;html=1;whiteSpace=wrap;connectable=0;fillColor=none;top=0;left=0;bottom=0;right=0;overflow=hidden;pointerEvents=1;" vertex="1" parent="1dIHy2hXcwwlP3k45t-N-29">
          <mxGeometry width="60" height="40" as="geometry" />
        </mxCell>
        <mxCell id="1dIHy2hXcwwlP3k45t-N-31" value="" style="shape=partialRectangle;html=1;whiteSpace=wrap;collapsible=0;dropTarget=0;pointerEvents=0;fillColor=none;top=0;left=0;bottom=0;right=0;points=[[0,0.5],[1,0.5]];portConstraint=eastwest;" vertex="1" parent="1dIHy2hXcwwlP3k45t-N-22">
          <mxGeometry y="160" width="60" height="40" as="geometry" />
        </mxCell>
        <mxCell id="1dIHy2hXcwwlP3k45t-N-32" value="1" style="shape=partialRectangle;html=1;whiteSpace=wrap;connectable=0;fillColor=none;top=0;left=0;bottom=0;right=0;overflow=hidden;pointerEvents=1;" vertex="1" parent="1dIHy2hXcwwlP3k45t-N-31">
          <mxGeometry width="60" height="40" as="geometry" />
        </mxCell>
        <mxCell id="1dIHy2hXcwwlP3k45t-N-33" value="单调递增栈" style="text;html=1;align=center;verticalAlign=middle;resizable=0;points=[];autosize=1;strokeColor=none;" vertex="1" parent="1">
          <mxGeometry x="190" y="440" width="80" height="20" as="geometry" />
        </mxCell>
        <mxCell id="1dIHy2hXcwwlP3k45t-N-34" value="单调递减栈" style="text;html=1;align=center;verticalAlign=middle;resizable=0;points=[];autosize=1;strokeColor=none;" vertex="1" parent="1">
          <mxGeometry x="374" y="440" width="80" height="20" as="geometry" />
        </mxCell>
      </root>
    </mxGraphModel>
  </diagram>
</mxfile>
